<svg xmlns="http://www.w3.org/2000/svg" xmlns:xlink="http://www.w3.org/1999/xlink" width="1920" height="827.18" viewBox="0 0 1920 827.18">
  <defs>
    <linearGradient id="linear-gradient" x1="1" y1="0.519" x2="0" y2="0.5" gradientUnits="objectBoundingBox">
      <stop offset="0" stop-color="#1eb49e"/>
      <stop offset="1" stop-color="#236069"/>
    </linearGradient>
  </defs>
  <g id="Group_l1" data-name="Group l1" transform="translate(0)">
    <path id="Subtraction_4" data-name="Subtraction 4" d="M1985.128,1320.5c-36.43,0-72.8-.68-108.1-2.02-38.754-1.472-77.2-3.778-114.277-6.854-30.052-2.493-62.118-5.549-98.031-9.341-31.978-3.376-66.279-7.263-104.865-11.881-71.654-8.575-147.4-18.416-220.647-27.933h-.005c-104.867-13.624-213.3-27.712-309.765-38.066-51.893-5.57-96.391-9.659-136.037-12.5-21.47-1.538-41.723-2.715-60.2-3.5-19.378-.821-37.479-1.237-53.8-1.237-8.584,0-16.871.115-24.631.341-49.745,1.449-97.441,4.116-141.763,7.927-35.458,3.049-68.849,6.832-99.245,11.244-27.044,3.926-46.661,7.634-58.355,10.053-12.7,2.627-19.03,4.336-19.09,4.353L461.937,502H1756.532l598.82,22.423.963,773.122-.054.009c-1.786.256-11.527,1.63-27.944,3.578-16.546,1.964-43.44,4.927-77.594,7.891-38.394,3.332-77.959,5.987-117.6,7.891C2083.584,1319.294,2033.79,1320.5,1985.128,1320.5Z" transform="translate(-436.316 -502)" opacity="0.1" fill="url(#linear-gradient)"/>
    <path id="Path_4" data-name="Path 4" d="M0,0H1920V743.684s-318.156,55.659-626.84,41.054-772.389-79.874-984.4-66.325S0,761.67,0,761.67Z" fill="url(#linear-gradient)"/>
    <path id="Subtraction_5" data-name="Subtraction 5" d="M1454.148,1232.18c-41.42,0-81.915-.921-120.358-2.74-32.943-1.559-68.07-3.648-107.389-6.386-35.069-2.443-72.668-5.348-114.945-8.88-78.686-6.573-161.615-14.339-241.814-21.848h-.011l-.018,0-.086-.008-.042,0-.1-.01-.026,0-.118-.011-.018,0-.064-.006c-103.4-9.68-210.311-19.69-307.229-27.051-52.23-3.966-97.537-6.876-138.509-8.9-46.01-2.268-85.491-3.37-120.7-3.37-27.276,0-51.964.694-73.379,2.064-54.242,3.465-106.215,8.174-154.477,14-26.017,3.139-51.2,6.633-74.864,10.386V405H1920v795.484c-68.179,8.759-137.31,15.865-205.472,21.122C1623.559,1228.622,1535.955,1232.179,1454.148,1232.18Z" transform="translate(0 -405)" opacity="0.1" fill="url(#linear-gradient)"/>
  </g>
</svg>
