<?xml version="1.0"?>
<svg xmlns="http://www.w3.org/2000/svg" xmlns:xlink="http://www.w3.org/1999/xlink" version="1.1" id="Layer_1" x="0px" y="0px" viewBox="0 0 512 512" style="enable-background:new 0 0 512 512;" xml:space="preserve" width="512px" height="512px" class=""><g><g>
	<g>
		<g>
			<path d="M162.133,204.8h51.2c4.71,0,8.533-3.823,8.533-8.533s-3.823-8.533-8.533-8.533h-51.2c-4.71,0-8.533,3.823-8.533,8.533     S157.423,204.8,162.133,204.8z" data-original="#000000" class="active-path" data-old_color="#C57070" fill="#64B5AC"/>
			<path d="M162.133,136.533h102.4c4.719,0,8.533-3.823,8.533-8.533s-3.814-8.533-8.533-8.533h-102.4     c-4.71,0-8.533,3.823-8.533,8.533S157.423,136.533,162.133,136.533z" data-original="#000000" class="active-path" data-old_color="#C57070" fill="#64B5AC"/>
			<path d="M349.867,238.933h-34.133c-4.719,0-8.533,3.823-8.533,8.533s3.814,8.533,8.533,8.533h34.133     c4.719,0,8.533-3.823,8.533-8.533S354.586,238.933,349.867,238.933z" data-original="#000000" class="active-path" data-old_color="#C57070" fill="#64B5AC"/>
			<path d="M290.133,247.467c0-4.71-3.814-8.533-8.533-8.533H162.133c-4.71,0-8.533,3.823-8.533,8.533s3.823,8.533,8.533,8.533     H281.6C286.319,256,290.133,252.177,290.133,247.467z" data-original="#000000" class="active-path" data-old_color="#C57070" fill="#64B5AC"/>
			<path d="M238.933,196.267c0,4.71,3.823,8.533,8.533,8.533h102.4c4.719,0,8.533-3.823,8.533-8.533s-3.814-8.533-8.533-8.533     h-102.4C242.756,187.733,238.933,191.556,238.933,196.267z" data-original="#000000" class="active-path" data-old_color="#C57070" fill="#64B5AC"/>
			<path d="M482.62,137.975l-8.533-5.709c-3.917-2.628-9.207-1.579-11.844,2.338c-2.628,3.917-1.579,9.216,2.338,11.844l8.823,5.888     c13.679,8.405,21.53,24.422,21.53,43.93v273.067c0,14.353-11.238,25.6-25.6,25.6H42.667c-14.353,0-25.6-11.247-25.6-25.6V196.267     c0-15.479,6.63-35.046,21.811-44.109l8.533-5.709c3.917-2.628,4.966-7.927,2.347-11.844c-2.62-3.908-7.919-4.966-11.836-2.338     l-8.158,5.47C11.682,148.506,0,171.477,0,196.267v273.067C0,493.261,18.739,512,42.667,512h426.667     C493.261,512,512,493.261,512,469.333V196.267C512,170.692,501.18,149.385,482.62,137.975z" data-original="#000000" class="active-path" data-old_color="#C57070" fill="#64B5AC"/>
			<path d="M156.493,351.693L37.385,445.56c-3.703,2.927-4.335,8.286-1.425,11.989c1.69,2.133,4.19,3.251,6.707,3.251     c1.852,0,3.712-0.597,5.282-1.826l119.108-93.867c3.703-2.927,4.335-8.286,1.425-11.989     C165.555,349.414,160.196,348.8,156.493,351.693z" data-original="#000000" class="active-path" data-old_color="#C57070" fill="#64B5AC"/>
			<path d="M355.14,351.693c-3.721-2.918-9.071-2.261-11.981,1.434c-2.918,3.703-2.27,9.071,1.434,11.981l119.467,93.867     c1.562,1.229,3.422,1.826,5.265,1.826c2.534,0,5.035-1.118,6.716-3.26c2.918-3.703,2.27-9.071-1.434-11.981L355.14,351.693z" data-original="#000000" class="active-path" data-old_color="#C57070" fill="#64B5AC"/>
			<path d="M307.2,298.667c0-4.71-3.814-8.533-8.533-8.533h-85.333c-4.71,0-8.533,3.823-8.533,8.533s3.823,8.533,8.533,8.533h85.333     C303.386,307.2,307.2,303.377,307.2,298.667z" data-original="#000000" class="active-path" data-old_color="#C57070" fill="#64B5AC"/>
			<path d="M35.874,208.171c-2.85,3.746-2.125,9.097,1.621,11.955l187.017,142.293c1.579,1.331,15.812,13.047,31.13,13.047     c15.386,0,29.739-11.281,31.121-12.416l187.733-142.933c3.755-2.85,4.48-8.201,1.63-11.955c-2.859-3.738-8.218-4.48-11.964-1.613     l-20.429,15.556V42.667C443.733,19.541,424.192,0,401.067,0H110.933C87.808,0,68.267,19.541,68.267,42.667v179.422     l-20.437-15.548C44.083,203.691,38.733,204.416,35.874,208.171z M85.333,42.667c0-13.636,11.964-25.6,25.6-25.6h290.133     c13.636,0,25.6,11.964,25.6,25.6v192.427L276.241,349.628c-3.038,2.441-12.672,8.772-20.599,8.772     c-7.697,0-17.109-6.502-20.437-9.276L85.333,235.076V42.667z" data-original="#000000" class="active-path" data-old_color="#C57070" fill="#64B5AC"/>
		</g>
	</g>
</g></g> </svg>
