<?xml version="1.0" encoding="iso-8859-1"?>
<!-- Generator: Adobe Illustrator 19.0.0, SVG Export Plug-In . SVG Version: 6.00 Build 0)  -->
<svg version="1.1" id="Layer_1" xmlns="http://www.w3.org/2000/svg" xmlns:xlink="http://www.w3.org/1999/xlink" x="0px" y="0px"
	 viewBox="0 0 512 512" style="enable-background:new 0 0 512 512;" xml:space="preserve">
<polygon style="fill:#FCD577;" points="431.746,200.343 430.662,201.427 430.662,487.524 81.091,487.524 81.091,201.427 
	80.007,200.343 255.876,24.5 "/>
<polygon style="fill:#EAC36E;" points="81.091,245.061 255.876,70.301 430.662,245.061 430.662,201.427 431.746,200.343 
	255.876,24.5 80.007,200.343 81.091,201.427 "/>
<polyline style="fill:#FF6F52;" points="412.626,181.247 412.626,39.983 331.361,39.983 331.361,99.983 "/>
<rect x="120.761" y="276.343" style="fill:#CFDCE5;" width="119.387" height="211.165"/>
<rect x="277.811" y="276.343" style="fill:#4EBFED;" width="119.387" height="119.387"/>
<rect x="217.119" y="133.703" style="fill:#415E72;" width="77.509" height="77.509"/>
<path d="M509.42,265.453L340.298,96.331V48.792h63.648v95.567c0,4.864,3.944,8.808,8.808,8.808c4.864,0,8.808-3.944,8.808-8.808
	V39.984c0-4.864-3.944-8.808-8.808-8.808h-81.264c-4.864,0-8.808,3.944-8.808,8.808v38.732l-60.455-60.455
	c-1.651-1.652-3.892-2.58-6.228-2.58c-2.336,0-4.577,0.928-6.228,2.58l-73.351,73.351c-3.44,3.44-3.44,9.017,0,12.455
	c3.44,3.44,9.017,3.44,12.455,0L256,36.945l69.228,69.228c0.023,0.025,0.048,0.048,0.072,0.072l96.683,96.683v275.775H249.082
	V276.341c0-4.864-3.944-8.808-8.808-8.808H120.89c-4.864,0-8.808,3.944-8.808,8.808v202.363H90.016V202.929l76.954-76.954
	c3.44-3.44,3.44-9.017,0-12.455c-3.44-3.44-9.017-3.44-12.455,0L2.58,265.453c-3.44,3.44-3.44,9.017,0,12.455
	c1.719,1.719,3.974,2.58,6.228,2.58s4.508-0.86,6.228-2.58L72.4,220.544v266.967c0,4.864,3.944,8.808,8.808,8.808H430.79
	c4.864,0,8.808-3.944,8.808-8.808V220.545l57.365,57.365c1.719,1.719,3.974,2.58,6.228,2.58s4.508-0.86,6.228-2.58
	C512.861,274.47,512.861,268.893,509.42,265.453z M129.698,478.704V285.149h101.768v193.555H129.698z"/>
<path d="M269.136,276.341v119.384c0,4.864,3.944,8.808,8.808,8.808h119.385c4.864,0,8.808-3.944,8.808-8.808V276.341
	c0-4.864-3.944-8.808-8.808-8.808H277.944C273.079,267.533,269.136,271.477,269.136,276.341z M286.751,344.84h42.077v42.077h-42.077
	L286.751,344.84L286.751,344.84z M346.444,386.917V344.84h42.077v42.077H346.444z M388.521,327.224h-42.077v-42.077h42.077V327.224z
	 M328.828,285.149v42.077h-42.077v-42.077H328.828z"/>
<path d="M294.759,124.899H217.25c-4.864,0-8.808,3.944-8.808,8.808v77.509c0,4.864,3.944,8.808,8.808,8.808h77.509
	c4.864,0,8.808-3.944,8.808-8.808v-77.509C303.567,128.842,299.624,124.899,294.759,124.899z M285.952,202.408h-59.893v-59.893
	h59.893V202.408z"/>
<circle cx="209.427" cy="381.497" r="8.808"/>
<g>
</g>
<g>
</g>
<g>
</g>
<g>
</g>
<g>
</g>
<g>
</g>
<g>
</g>
<g>
</g>
<g>
</g>
<g>
</g>
<g>
</g>
<g>
</g>
<g>
</g>
<g>
</g>
<g>
</g>
</svg>
