<?xml version="1.0"?>
<svg xmlns="http://www.w3.org/2000/svg" height="512px" viewBox="0 -18 512 512" width="512px" class=""><g><path d="m504.5 203.210938v239.230468c0 14.660156-11.890625 26.5625-26.570312 26.5625h-443.871094c-8.320313 0-15.730469-3.820312-20.597656-9.8125-3.722657-4.558594-5.960938-10.398437-5.960938-16.75v-239.230468c0-6.917969 3.171875-13.457032 8.589844-17.738282l14.320312-11.339844 198.238282-157.050781c16.03125-12.699219 38.671874-12.699219 54.703124 0l198.238282 157.050781 14.320312 11.339844c2.25 1.769532 4.128906 3.949219 5.519532 6.378906 1.992187 3.402344 3.070312 7.320313 3.070312 11.359376zm0 0" fill="#76ffd9" data-original="#76FFD9" class="" style="fill:#67DDD2" data-old_color="#2E886F"/><path d="m504.5 203.210938v239.230468c0 14.660156-11.890625 26.5625-26.570312 26.5625h-443.871094c-8.320313 0-15.730469-3.820312-20.597656-9.8125-3.722657-4.558594-5.960938-10.398437-5.960938-16.75v-239.230468c0-6.917969 3.171875-13.457032 8.589844-17.738282l14.320312-11.339844 177.863282 95.660157c5.722656 3.078125 12.714843 2.554687 17.914062-1.347657l19.800781-14.847656c5.933594-4.449218 14.089844-4.449218 20.023438 0l19.800781 14.847656c5.199219 3.902344 12.191406 4.425782 17.914062 1.347657l177.863282-95.660157 14.320312 11.339844c2.25 1.769532 4.128906 3.949219 5.519532 6.378906 1.992187 3.402344 3.070312 7.320313 3.070312 11.359376zm0 0" fill="#5de0bf" data-original="#5DE0BF" class="active-path" style="fill:#5CD1C6" data-old_color="#67DDD2"/><path d="m93.480469 41.183594h330.917969v268.859375h-330.917969zm0 0" fill="#fff" data-original="#FFF" class=""/><path d="m424.398438 204.894531v105.148438h-330.917969v-101.988281l88.238281 47.457031c.511719-7.078125 6.402344-12.660157 13.609375-12.660157h121.34375c7.207031 0 13.097656 5.582032 13.609375 12.660157zm0 0" fill="#e1eaf8" data-original="#E1EAF8"/><path d="m504.5 203.214844v239.226562c0 14.664063-11.886719 26.566406-26.566406 26.566406h-443.867188c-14.679687 0-26.566406-11.902343-26.566406-26.566406v-239.226562c0-4.042969 1.074219-7.964844 3.066406-11.367188l181.097656 97.394532 64.335938 34.601562 64.332031-34.601562 181.101563-97.394532c1.988281 3.402344 3.066406 7.324219 3.066406 11.367188zm0 0" fill="#fff" data-original="#FFF" class=""/><path d="m504.5 427.34375v15.097656c0 14.664063-11.886719 26.566406-26.566406 26.566406h-443.867188c-14.679687 0-26.566406-11.902343-26.566406-26.566406v-15.097656l184.164062-138.101562 64.335938 34.601562 64.335938-34.601562zm0 0" fill="#f2f2f0" data-original="#F2F2F0"/><path d="m498.539062 459.191406c-4.867187 5.992188-12.277343 9.8125-20.609374 9.8125h-443.871094c-8.320313 0-15.730469-3.820312-20.597656-9.8125l173.507812-130.089844 69.03125-51.757812 69.03125 51.757812zm0 0" fill="#fff" data-original="#FFF" class=""/><path d="m256 277.339844-242.542969 181.855468c4.867188 5.988282 12.28125 9.808594 20.609375 9.808594h9.917969l147.808594-110.824218c1.941406 1.421874 4.332031 2.273437 6.925781 2.273437h114.558594c2.59375 0 4.984375-.851563 6.925781-2.273437l147.8125 110.824218h9.917969c8.328125 0 15.738281-3.820312 20.605468-9.808594zm0 0" fill="#e1eaf8" data-original="#E1EAF8"/><path d="m205.101562 263.683594h101.796876v77.75h-101.796876zm0 0" fill="#ffc843" data-original="#FFC843"/><path d="m205.101562 321.566406h101.796876v19.867188h-101.796876zm0 0" fill="#ffa816" data-original="#FFA816"/><path d="m205.101562 263.683594h101.796876v22.75h-101.796876zm0 0" fill="#fff" data-original="#FFF" class=""/><path d="m336.894531 110.300781c0 17.890625-14.503906 32.394531-32.394531 32.394531s-32.390625-14.503906-32.390625-32.394531 14.5-32.390625 32.390625-32.390625 32.394531 14.5 32.394531 32.390625zm0 0" fill="#ffc843" data-original="#FFC843"/><path d="m504.5 260.683594c4.144531 0 7.5-3.359375 7.5-7.5v-49.972656c0-9.253907-4.160156-17.867188-11.421875-23.628907l-68.679687-54.398437v-84c0-4.140625-3.355469-7.5-7.5-7.5h-108.019532l-28.371094-22.476563c-18.84375-14.941406-45.171874-14.941406-64.015624-.003906l-28.375 22.480469h-102.136719c-4.144531 0-7.5 3.359375-7.5 7.5v27.839844c0 4.140624 3.355469 7.5 7.5 7.5 4.140625 0 7.5-3.359376 7.5-7.5v-20.339844h315.917969v180.113281l-102.5 55.128906v-20.242187c0-4.140625-3.359376-7.5-7.5-7.5h-101.796876c-4.140624 0-7.5 3.359375-7.5 7.5v20.242187l-96.621093-51.964843v-131.75c0-4.140626-3.355469-7.5-7.5-7.5-4.140625 0-7.5 3.359374-7.5 7.5v20.316406l-74.546875 59.054687c-7.265625 5.757813-11.433594 14.367188-11.433594 23.628907v239.230468c0 7.972656 2.757812 15.304688 7.363281 21.113282.03125.046874.058594.09375.09375.140624.070313.089844.148438.171876.21875.257813 6.25 7.652344 15.753907 12.550781 26.382813 12.550781h443.882812c10.667969 0 20.199219-4.9375 26.449219-12.636718.046875-.058594.101563-.113282.148437-.175782.023438-.03125.042969-.066406.066407-.097656 4.621093-5.8125 7.394531-13.164062 7.394531-21.152344v-158.007812c0-4.140625-3.359375-7.5-7.5-7.5-4.144531 0-7.5 3.359375-7.5 7.5v158.007812c0 1.945313-.296875 3.824219-.839844 5.589844l-181.761718-136.28125v-10.792969l182.574218-98.191406c.003906.148437.027344.296875.027344.449219v49.96875c0 4.140625 3.355469 7.5 7.5 7.5zm-271.191406-237.722656c13.363281-10.59375 32.023437-10.59375 45.382812 0l13.535156 10.722656h-72.453124zm-20.707032 248.222656h86.796876v62.75h-86.796876zm-126.621093-47.289063-63.332031-34.0625 63.332031-50.167969zm400.445312 235.589844c-2.558593 1.28125-5.433593 2.019531-8.484375 2.019531h-443.882812c-3.046875 0-5.921875-.738281-8.484375-2.019531l92.421875-69.292969c3.3125-2.484375 3.984375-7.1875 1.5-10.5-2.484375-3.316406-7.1875-3.988281-10.5-1.503906l-93.152344 69.847656c-.546875-1.769531-.84375-3.644531-.84375-5.59375v-239.230468c0-.148438.023438-.296876.027344-.445313l182.574218 98.191406v10.792969l-62.601562 46.941406c-3.3125 2.484375-3.984375 7.1875-1.5 10.5 1.472656 1.964844 3.726562 3 6.007812 3 1.5625 0 3.144532-.488281 4.492188-1.5l53.601562-40.195312v10.9375c0 4.140625 3.359376 7.5 7.5 7.5h101.796876c4.140624 0 7.5-3.359375 7.5-7.5v-10.9375zm-54.527343-315.164063 57.457031 45.511719-57.457031 30.898438zm0 0" fill="#434c54" data-original="#434C54" class=""/><g fill="#c1c8d2"><path d="m288.902344 129.679688c5.304687-4.777344 8.648437-11.695313 8.648437-19.378907 0-4.140625-3.359375-7.5-7.5-7.5-4.144531 0-7.5 3.359375-7.5 7.5 0 2.410157-.78125 4.632813-2.089843 6.453125-3.773438 4.023438-9.023438 5.773438-14.703126 3.027344-3.214843-1.941406-5.375-5.457031-5.375-9.480469 0-14.378906-11.699218-26.082031-26.082031-26.082031-14.378906 0-26.082031 11.703125-26.082031 26.082031 0 6.113281-4.972656 11.085938-11.082031 11.085938s-11.082031-4.972657-11.082031-11.085938c0-4.140625-3.359376-7.5-7.5-7.5-4.144532 0-7.5 3.359375-7.5 7.5 0 14.382813 11.699218 26.085938 26.082031 26.085938 14.382812 0 26.082031-11.703125 26.082031-26.085938 0-6.109375 4.972656-11.082031 11.082031-11.082031s11.082031 4.972656 11.082031 11.082031c0 14.382813 11.703126 26.085938 26.085938 26.085938.929688 0 1.851562-.050781 2.757812-.148438 6.867188-.648437 10.898438-3.097656 14.675782-6.558593zm0 0" data-original="#000000"/><path d="m135.488281 183.183594c0 4.140625 3.359375 7.5 7.5 7.5h226.023438c4.140625 0 7.5-3.359375 7.5-7.5s-3.359375-7.5-7.5-7.5h-226.023438c-4.140625 0-7.5 3.355468-7.5 7.5zm0 0" data-original="#000000"/><path d="m142.988281 217.683594h226.023438c4.140625 0 7.5-3.359375 7.5-7.5s-3.359375-7.5-7.5-7.5h-226.023438c-4.140625 0-7.5 3.359375-7.5 7.5s3.359375 7.5 7.5 7.5zm0 0" data-original="#000000"/></g></g> </svg>
