<?xml version="1.0"?>
<svg xmlns="http://www.w3.org/2000/svg" height="512px" viewBox="0 -9 511.99983 511" width="512px" class=""><g><path d="m8.34375 213.527344h494.820312v271.621094h-494.820312zm0 0" fill="#ffc843" data-original="#FFC843"/><g fill="#ffb400"><path d="m503.164062 485.148438h-29.085937l-121.261719-121.261719 14.554688-14.542969zm0 0" data-original="#000000"/><path d="m158.691406 363.875c0 .011719-.023437.035156-.035156.046875l-121.222656 121.226563h-29.089844l135.769531-135.773438.042969-.03125zm0 0" data-original="#000000"/><path d="m8.34375 213.527344 247.421875 247.421875 181.792969-181.804688 65.605468-65.617187zm0 0" data-original="#000000"/></g><path d="m437.558594 62.667969v216.476562l-181.792969 181.804688-185.820313-185.820313v-266.289062h285.585938l81.839844 53.707031zm0 0" fill="#fff" data-original="#FFF" class=""/><path d="m437.558594 235.433594v43.710937l-181.792969 181.804688-185.820313-185.820313v-43.710937l185.820313 185.820312zm0 0" fill="#fff" data-original="#FFF" class=""/><path d="m117.207031 88.730469h171.472657v34.257812h-171.472657zm0 0" fill="#76ffd9" data-original="#76FFD9" class="active-path" style="fill:#67DDD2" data-old_color="#0F8967"/><path d="m117.207031 161.519531h272.703125v34.257813h-272.703125zm0 0" fill="#76ffd9" data-original="#76FFD9" class="active-path" style="fill:#67DDD2" data-old_color="#0F8967"/><path d="m504.796875 493.324219c9.910156-1.964844 6.710937-18.894531 6.710937-25.867188 0-22.207031 0-44.414062 0-66.621093 0-53.097657 0-106.195313 0-159.296876 0-7.777343 0-15.554687 0-23.332031 0-5.75-.554687-13.015625-8.34375-13.015625h-57.265624v-142.523437c0-2.808594-1.414063-5.429688-3.765626-6.972657l-82.027343-53.828124c-1.359375-.890626-2.949219-1.367188-4.574219-1.367188h-285.585938c-4.609374 0-8.339843 3.734375-8.339843 8.339844v196.351562h-53.261719c-6.980469-.003906-8.34375 6.300782-8.34375 11.769532v18.359374 70.429688 157.0625 19.960938c0 5.246093 2.042969 10.710937 8.339844 10.710937h364.746094c4.605468 0 8.339843-3.734375 8.339843-8.339844s-3.734375-8.339843-8.339843-8.339843h-344.613282l115.675782-115.675782 105.71875 105.71875c1.566406 1.566406 3.683593 2.445313 5.898437 2.445313 2.210937 0 4.332031-.878907 5.898437-2.445313l105.703126-105.710937 115.667968 115.667969h-59.625c-4.605468 0-8.339844 3.734374-8.339844 8.339843s3.734376 8.339844 8.339844 8.339844h79.757813c.53125 0 1.105469-.058594 1.628906-.160156zm-21.765625-271.453125-37.132812 37.136718v-37.136718zm-454.550781 0h33.125v33.125zm-11.800781 243.140625v-231.351563l47.359374 47.359375.007813.007813 68.304687 68.308594zm61.605468-193.335938v-254.496093h274.753906l76.179688 49.992187v208.515625l-67.566406 67.574219c-.0625.058593-.132813.109375-.191406.171875-.0625.0625-.117188.132812-.175782.195312l-105.519531 105.527344zm365.171875 13.367188c.003907-.003907.003907-.003907.007813-.003907l51.367187-51.378906v231.351563l-115.671875-115.667969zm0 0" fill="#434c54" data-original="#434C54" class=""/></g> </svg>
